@startuml
class BetterTextField {
    + <<const>> UssClassName : string = "unity-better-text-field"
    + <<const>> PlaceholderUssClassName : string
    + BetterTextField()
    + <<override>> value : string <<get>> <<set>>
    + Placeholder : string <<get>> <<set>>
    + <<override>> SetValueWithoutNotify(newValue:string) : void
}
class "Action`1"<T> {
}
class UxmlFactory <<new>> {
}
class UxmlTraits <<new>> {
    + <<override>> Init(ve:VisualElement, bag:IUxmlAttributes, cc:CreationContext) : void
}
class "UxmlFactory`2"<T1,T2> {
}
TextField <|-- BetterTextField
BetterTextField --> "OnValueChangedHandler<string>" "Action`1"
BetterTextField +-- UxmlFactory
"UxmlFactory`2" "<BetterTextField,UxmlTraits>" <|-- UxmlFactory
BetterTextField +-- UxmlTraits
@enduml
