@startuml
class ProgressView {
    + <<const>> UssClassName : string = "progress-view"
    + <<const>> LabelUssClassName : string
    + <<const>> ProgressBarUssClassName : string
    + <<const>> ButtonUssClassName : string
    + ProgressView()
    + SetText(text:string, progressText:string) : void
    + SetPercentComplete(percent:int) : void
    + SetCancelCallback(callback:Action) : void
    + SetCancelButtonActive(active:bool) : void
}
class UxmlFactory <<new>> {
}
class "UxmlFactory`1"<T> {
}
VisualElement <|-- ProgressView
ProgressView +-- UxmlFactory
"UxmlFactory`1" "<ProgressView>" <|-- UxmlFactory
@enduml
