@startuml
class DependencyTreeInitializeOrderSorter <<struct>> {
    + DependencyTreeInitializeOrderSorter(tree:DependencyTree, target:ICollection<int>)
    + SortRegisteredPackagesIntoTarget() : void
}
enum ExplorationMark {
    None,
    Viewed,
    Sorted,
}
class "ICollection`1"<T> {
}
DependencyTreeInitializeOrderSorter --> "Tree" DependencyTree
DependencyTreeInitializeOrderSorter --> "Target<int>" "ICollection`1"
DependencyTreeInitializeOrderSorter +-- ExplorationMark
@enduml
