@startuml
class CoreDiagnostics {
    + SetProjectConfiguration(serializedProjectConfig:string) : void
    + SendCircularDependencyDiagnostics(exception:Exception) : void
    + SendCorePackageInitDiagnostics(exception:Exception) : void
    + SendOperateServicesInitDiagnostics(exception:Exception) : void
}
class "IDictionary`2"<T1,T2> {
}
CoreDiagnostics --> "CoreTags<string,string>" "IDictionary`2"
CoreDiagnostics --> "Instance" CoreDiagnostics
@enduml
