@startuml
class ChangesTabPageView {
    + <<const>> UssClassName : string = "changes-tab-page-view"
    + <<const>> SearchBarUssClassName : string
    + <<const>> EntryGroupsUssClassName : string
    + <<const>> PublishButtonUssClassName : string
    + <<const>> TextFieldUssClassName : string
    + <<const>> ListViewUssClassName : string
    + ChangesTabPageView()
    + SetBusyStatus(busy:bool) : void
    + SetSearchQuery(query:string) : void
    + SetRevisionSummary(message:string) : void
    + SetConflicts(list:IReadOnlyList<IChangeEntryData>) : void
    + SetSelectedChanges() : void
    + SetChanges(list:IReadOnlyList<IChangeEntryData>) : void
    + SetToggledCount(count:int) : void
    + SetPublishEnabled(enabled:bool, reason:string) : void
    + DisplayDialogue(title:string, message:string, affirmative:string) : bool
    + DisplayDialogue(title:string, message:string, affirmative:string, negative:string) : bool
}
class UxmlFactory <<new>> {
}
class "UxmlFactory`1"<T> {
}
TabPageComponent <|-- ChangesTabPageView
IChangesView <|-- ChangesTabPageView
ChangesTabPageView --> "Presenter" IChangesPresenter
ChangesTabPageView +-- UxmlFactory
"UxmlFactory`1" "<ChangesTabPageView>" <|-- UxmlFactory
@enduml
