@startuml
class StartPageView {
    + <<const>> UssClassName : string = "start-page-view"
    + <<const>> UssTitleClassName : string
    + <<const>> UssButtonClassName : string
    + StartPageView()
    + Text : string <<set>>
    + ButtonText : string <<set>>
    + SetButtonVisible(isVisible:bool) : void
}
class UxmlFactory <<new>> {
}
class "UxmlFactory`1"<T> {
}
PageComponent <|-- StartPageView
IStartView <|-- StartPageView
StartPageView --> "Presenter" IStartPresenter
StartPageView +-- UxmlFactory
"UxmlFactory`1" "<StartPageView>" <|-- UxmlFactory
@enduml
