@startuml
class ScheduledInvocation {
    + ActionId : long
    + CompareTo(that:ScheduledInvocation) : int
}
class ActionScheduler {
    + ActionScheduler()
    + ActionScheduler(timeProvider:ITimeProvider)
    + ScheduledActionsCount : int <<get>>
    + ScheduleAction(action:Action, delaySeconds:double) : long
    + CancelAction(actionId:long) : void
    + JoinPlayerLoopSystem() : void
    + QuitPlayerLoopSystem() : void
}
class "IComparable`1"<T> {
}
"IComparable`1" "<ScheduledInvocation>" <|-- ScheduledInvocation
ScheduledInvocation --> "Action" Action
ScheduledInvocation --> "InvocationTime" DateTime
IActionScheduler <|-- ActionScheduler
@enduml
