@startuml
class AsyncOperationAwaiter <<struct>> {
    + AsyncOperationAwaiter(asyncOperation:IAsyncOperation)
    + OnCompleted(continuation:Action) : void
    + UnsafeOnCompleted(continuation:Action) : void
    + IsCompleted : bool <<get>>
    + GetResult() : void
}
class "AsyncOperationAwaiter`1"<T> <<struct>> {
    + AsyncOperationAwaiter(asyncOperation:IAsyncOperation<T>)
    + OnCompleted(continuation:Action) : void
    + UnsafeOnCompleted(continuation:Action) : void
    + IsCompleted : bool <<get>>
    + GetResult() : T
}
class "IAsyncOperationAwaiter`1"<T> {
}
IAsyncOperationAwaiter <|-- AsyncOperationAwaiter
"IAsyncOperationAwaiter`1" "<T>" <|-- "AsyncOperationAwaiter`1"
@enduml
