@startuml
class AnimationOutputWeightProcessor {
    + AnimationOutputWeightProcessor(output:AnimationPlayableOutput)
    + Evaluate() : void
}
class WeightInfo <<struct>> {
    + port : int
}
ITimelineEvaluateCallback <|-- AnimationOutputWeightProcessor
AnimationOutputWeightProcessor +-- WeightInfo
WeightInfo --> "mixer" Playable
WeightInfo --> "parentMixer" Playable
@enduml
