@startuml
class UserRoleRequest {
    + GetUserRole() : IAsyncOperation<UserRole>
}
class UserList {
}
class User {
    + ForeignKey : string <<get>> <<set>>
    + Name : string <<get>> <<set>>
    + Email : string <<get>> <<set>>
    + AccessGrantedBy : string <<get>> <<set>>
}
class RequestNotAuthorizedException {
}
class CurrentUserNotFoundException {
}
class UserListNotFoundException {
}
IUserRoleRequest <|-- UserRoleRequest
UserRoleRequest +-- UserList
UserRoleRequest +-- User
User --> "Role" UserRole
UserRoleRequest +-- RequestNotAuthorizedException
Exception <|-- RequestNotAuthorizedException
UserRoleRequest +-- CurrentUserNotFoundException
Exception <|-- CurrentUserNotFoundException
UserRoleRequest +-- UserListNotFoundException
Exception <|-- UserListNotFoundException
@enduml
