@startuml
interface IWindowCache {
}
class WindowCache {
    +  <<event>> BeforeSerialize : Action<IWindowCache> 
    + Serialize() : void
    + Clear() : void
    + RevisionSummary : string
    + ChangesSearchValue : string
    + SelectedHistoryRevision : string
    + HistoryPageNumber : int
    + TabIndex : int
}
class SelectedItemsDictionary {
    + SelectedItemsDictionary()
    + SelectedItemsDictionary(dictionary:IDictionary<string, bool>)
}
class "ScriptableObjectSingleton`1"<T> {
}
class "SerializableDictionary`2"<T1,T2> {
}
"ScriptableObjectSingleton`1" "<WindowCache>" <|-- WindowCache
IWindowCache <|-- WindowCache
WindowCache o-> "SimpleSelectedItems" SelectedItemsDictionary
"SerializableDictionary`2" "<string,bool>" <|-- SelectedItemsDictionary
@enduml
