@startuml
class BaseChangeListElement {
    + <<const>> UssClassName : string = "base-change-list-element"
    + <<const>> FileNameUssClassName : string
    + <<const>> FilePathUssClassName : string
    + <<const>> IconsUssClassName : string
    + <<const>> ButtonsUssClassName : string
    + <<const>> IconUssClassName : string
    + <<const>> ButtonUssClassName : string
    + BaseChangeListElement()
    + UpdateFilePath(path:string) : void
    + <<virtual>> ClearData() : void
}
class UxmlFactory <<new>> {
}
class "UxmlFactory`1"<T> {
}
VisualElement <|-- BaseChangeListElement
BaseChangeListElement --> "icons" VisualElement
BaseChangeListElement --> "buttons" VisualElement
BaseChangeListElement +-- UxmlFactory
"UxmlFactory`1" "<BaseChangeListElement>" <|-- UxmlFactory
@enduml
