@startuml
class ConflictedChangeListElement {
    + <<new>> <<const>> UssClassName : string = "conflicted-change-list-element"
    + <<const>> StatusIconUssClassName : string
    + <<const>> ShowButtonUssClassName : string
    + <<const>> ChooseMergeButtonUssClassName : string
    + <<const>> ChooseRemoteButtonUssClassName : string
    + <<const>> ChooseMineButtonUssClassName : string
    + ConflictedChangeListElement()
    + <<override>> ClearData() : void
}
class UxmlFactory <<new>> {
}
class "UxmlFactory`1"<T> {
}
BaseChangeListElement <|-- ConflictedChangeListElement
ConflictedChangeListElement --> "statusIcon" VisualElement
ConflictedChangeListElement --> "showButton" IconButton
ConflictedChangeListElement --> "chooseMergeButton" IconButton
ConflictedChangeListElement --> "chooseRemoteButton" IconButton
ConflictedChangeListElement --> "chooseMineButton" IconButton
ConflictedChangeListElement +-- UxmlFactory
"UxmlFactory`1" "<ConflictedChangeListElement>" <|-- UxmlFactory
@enduml
