@startuml
class CurveEditor <<sealed>> {
    + CurveEditor()
    + CurveEditor(settings:Settings)
    + Add(curves:SerializedProperty[]) : void
    + Add(curve:SerializedProperty) : void
    + Add(curve:SerializedProperty, state:CurveState) : void
    + Remove(curve:SerializedProperty) : void
    + RemoveAll() : void
    + GetCurveState(curve:SerializedProperty) : CurveState
    + SetCurveState(curve:SerializedProperty, state:CurveState) : void
    + GetSelection() : Selection
    + SetKeyframe(curve:SerializedProperty, keyframeIndex:int, keyframe:Keyframe) : void
    + OnGUI(rect:Rect) : bool
}
enum EditMode {
    None,
    Moving,
    TangentEdit,
}
enum Tangent {
    In,
    Out,
}
class Settings <<struct>> {
    + curvePickingDistance : float
    + keyTimeClampingDistance : float
}
class CurveState <<struct>> {
    + visible : bool
    + editable : bool
    + minPointCount : uint
    + zeroKeyConstantValue : float
    + width : float
    + handleWidth : float
    + showNonEditableHandles : bool
    + onlyShowHandlesOnSelection : bool
    + loopInBounds : bool
}
class Selection <<struct>> {
    + keyframeIndex : int
    + keyframe : Keyframe?
    + Selection(curve:SerializedProperty, keyframeIndex:int, keyframe:Keyframe?)
}
class MenuAction <<struct>> {
}
CurveEditor --> "settings" Settings
CurveEditor +-- EditMode
CurveEditor +-- Tangent
CurveEditor +-- Settings
Settings --> "bounds" Rect
Settings --> "padding" RectOffset
Settings --> "selectionColor" Color
Settings --> "defaultSettings" Settings
CurveEditor +-- CurveState
CurveState --> "color" Color
CurveState --> "defaultState" CurveState
CurveEditor +-- Selection
Selection --> "curve" SerializedProperty
CurveEditor +-- MenuAction
@enduml
